# xmcd
#
# Track frame offsets: 
#        150
#        15647
#        34964
#        52876
#        65411
#        78265
#        96102
#        122001
#        140622
#        157506
#        175715
#
# Disc length: 2508 seconds
#
# Revision: 0
# Processed by: cddbd v1.5.2PL0 Copyright (c) Steve Scherf et al.
# Submitted via: ExactAudioCopy v1.3
#
DISCID=7e09ca0b
DTITLE=Sugar Blue - Colors
DYEAR=2019
DGENRE=Blues
TTITLE0=And the Devil Too
TTITLE1=Bass Reeves
TTITLE2=We Will Be All Right
TTITLE3=Day Tripper
TTITLE4=Good Ole Days
TTITLE5=Dirty Old Man
TTITLE6=Man Like Me
TTITLE7=Shanghai Sunset
TTITLE8=Downhill
TTITLE9=Bonnie and Clyde
TTITLE10=Keep On
EXTD=
EXTT0=
EXTT1=
EXTT2=
EXTT3=
EXTT4=
EXTT5=
EXTT6=
EXTT7=
EXTT8=
EXTT9=
EXTT10=
PLAYORDER=
